<svg xmlns="http://www.w3.org/2000/svg" xmlns:xlink="http://www.w3.org/1999/xlink" viewBox="0 0 158.77 187.18"><defs><style>.cls-1{fill:url(#linear-gradient);}</style><linearGradient id="linear-gradient" y1="93.59" x2="158.77" y2="93.59" gradientUnits="userSpaceOnUse"><stop offset="0" stop-color="#0074ff"/><stop offset="1" stop-color="#ff6c6c"/></linearGradient></defs><title>Asset 1</title><g id="Layer_2" data-name="Layer 2"><g id="Layer_1-2" data-name="Layer 1"><path class="cls-1" d="M58,90.06c6.36-.16,12.12,2,17.79,4.65,1.49.68.81,1.79.83,2.78,0,.39-.41,1,.19,1.07s.47-.61.56-1a49.06,49.06,0,0,0,1.77-7.07c.16-1.38.42-2.73-.29-4.08a4.07,4.07,0,0,1-.52-2.29c.78-5.42-3.36-9.09-4.57-13.79a1.22,1.22,0,0,0-.56-.68c-4.46-2.11-8.74-4.47-14.06-2.59-5,1.78-10,.75-14.44-2.3C42,62.93,40.57,58.26,41.51,55a2.55,2.55,0,0,1,.27-.55,2.79,2.79,0,0,1,.33.58c1.46,5.85,6.78,8.3,12.48,8,.33,0,.9-.08.94-.25.17-.6-.43-.6-.78-.74C45,58.32,41.3,50.24,40.33,40.43c-.42-4.26,1.23-8.13,3.58-11.64.28-.41.6-1.16,1.19-.82s.19,1,.06,1.5c-1.09,4.19-2.17,8.35-.9,12.75C46.08,48.51,49.53,53.09,56,54.69c.32.08.69.38.91,0,.07-.13-.23-.52-.42-.74-3.46-4.07-4.56-9-4.22-14.15.25-3.85-.3-7.5-2.4-10.46-4.77-6.73-4-13.64-1.66-20.86a21.29,21.29,0,0,1,4.42-8,2.79,2.79,0,0,1,.72-.4,1.63,1.63,0,0,1-.09.46c-1.43,3-1.63,6.21-2,9.4-.75,6-.54,11.82,2.27,17.29.77,1.49,1.45,3.4,3.45,3.23s2.52-2.23,2.9-3.92c.65-2.91,1-5.88,1.67-8.79A22.43,22.43,0,0,1,64.81,10c.43-.64,1-1.78,1.82-1.33s.19,1.47,0,2.19c-1,2.94-2.32,5.75-2.81,8.85-.08.54-.18,1.08-.26,1.62-.53,3.65-.75,7.32-1.36,11-1.6,9.64-.23,18.86,6.69,26.37.87,1,2,2.44,3.09,2.08.79-.25.22-2.19.28-3.38.24-5.5,1.41-10.88,2.42-16.24.89-4.72,4.87-5.79,8.26-2.6C94,49,98.6,62,97.05,77.22c-.21,2,.44,1.94,1.74,1.9a8.61,8.61,0,0,1,1.24.08c1.55.18,1.32.21,1.19-1.06a13.5,13.5,0,0,1,.45-4c1.31-6.4,5.51-11,9.62-15.54,5.08-5.6,11.06-10.16,17-14.7a3.28,3.28,0,0,1,.44-.32c1-.47,2-1.6,3.24-.7s.85,2.22.6,3.37c-.79,3.56-1.69,7.1-2.53,10.64-.13.52-.59,1.28-.17,1.52.6.33,1-.5,1.35-.92,3.56-4.13,5.15-9.1,5.87-14.47a29.76,29.76,0,0,0-.84-13.7c-.85-2.57-.44-5.56-.73-8.35-.38-3.68-2-7-3.12-10.47-.2-.62-.65-1.45,0-1.83s1.23.44,1.63,1c2.69,3.82,3.76,8.22,4.39,12.8a19.35,19.35,0,0,0,1.48,6c1.22,2.47,3.1,2.65,4.64.36a20.93,20.93,0,0,0,3.53-11C148.33,12.09,148,6.3,146,.76a1.53,1.53,0,0,1-.09-.62c.43-.15.57.24.8.5,3.46,3.85,4.53,8.74,5.67,13.61a16,16,0,0,1-2.16,13.08,21.06,21.06,0,0,0-3.43,8.94c-.3,2.47.42,4.94,0,7.46-.69,3.77-1.58,7.39-4.24,10.27-.19.21-.47.66-.42.72.29.31.64.08,1,0,8.13-2.11,13.69-11.12,12.12-19.7-.32-1.79-.84-3.55-1.21-5.34-.11-.55-.46-1.38.12-1.67s1,.53,1.27,1a19.93,19.93,0,0,1,2.56,16.93c-2.14,7.5-6,13.35-13.48,16.08-.37.14-1,.21-.93.67s.68.32,1.05.33c5.29.25,10.81-1.8,12.47-8a4.64,4.64,0,0,1,.26-.65,2.69,2.69,0,0,1,.34.62c1,3.5-.69,8.36-3.83,10.27-4.62,2.81-9.55,3.59-14.68,1.65-2.72-1-5.25-.33-7.83.43-3.23,1-6,2.39-7.47,5.82-1,2.39-2.93,4.28-4.55,6.31a37.48,37.48,0,0,0-4.44,7.47c-.22.48.16,2.06-1.41,1.35-.32-.15-.15.46,0,.68a17.64,17.64,0,0,1,1.71,7.43c.1,3.56,1.38,6.71,2.45,10,1.91,5.88,1.54,11.56-3,16.29-.5.52-.94,1.1-1.39,1.67s-1.22,1-.93,1.4c.48.58.94-.32,1.39-.6,1.27-.8.94.43,1,.89,2,10.21-1.36,19.61-11.06,25a12,12,0,0,1-2.24,1.11c-4.21,1.18-6.45,4.39-8.31,8.12s-1.57,7,1,10.17A7.67,7.67,0,0,1,96,174c.22,1.3-.19,2.21-1.53,2.38-2,.26-4.12.68-4.93-2.11a1.5,1.5,0,0,0-.57-.68c-.37-.26-.68-.7-1.22-.58a8.34,8.34,0,0,1,.55,1.07c1.14,3.53,4.41,5.51,6,8.74,1.42,2.93.73,4.26-2.45,4.37A42.63,42.63,0,0,1,79,185.31c-3.08-.85-4.42-2.94-4.67-6.09a28.75,28.75,0,0,0-3.82-12.07c-.21-.36-.37-.94-.83-.79s-.14.73-.1,1.1c.34,3.13.35,3.12-2.75,2.83l-9.39-.83c-.38,0-.85-.2-1.06.36a8.11,8.11,0,0,0,.93.36c.92.22,1.85.43,2.78.61,3.26.61,5.94,2,7.3,5.38.66,1.63,2.15,2.59,3.48,3.6,1.17.89,1.06,1.78.2,2.76a7.87,7.87,0,0,1-4.64,2.5,38.35,38.35,0,0,1-13.26,0,197.51,197.51,0,0,1-25.38-5.59c-4.31-1.25-6.6-3.7-6.66-8.33a13.41,13.41,0,0,0-.32-2.16c-.15-.82-.23-.86-.79-.32s-.93,0-1.31-.11a14.61,14.61,0,0,1-7.36-6.08,33,33,0,0,1-3.22-6.52A28.14,28.14,0,0,0,.8,144.78c-.34-.31-.94-.58-.77-1.11s.83-.33,1.28-.37c2.86-.24,5.66-.38,6.35,3.55.07.38.27.94.87,1,0-.29,0-.59-.08-.87-2.52-15.25.87-28.8,11.07-40.36C28.49,96.42,39.67,91,53.05,90.4,54.71,90.33,56.36,90.17,58,90.06Z"/></g></g></svg>